<svg id="Layer_2" data-name="Layer 2" xmlns="http://www.w3.org/2000/svg" viewBox="0 0 922.65 664.9"><defs><style>.cls-1{fill:none;stroke:#cdcecf;stroke-miterlimit:10;stroke-width:0.57px;}</style></defs><title>RRHHIngenia-Website2020</title><path class="cls-1" d="M67.12,12.11,172.31,67.69l60.61,5,.6,12.27L235.13,86l.6,12.87,1.08,1.08.53,20.58-1.14,13.41-.47,7.17-2.81,1.14v19.38l.6,4.49-1.74,4.42-.54,7.78v3.35l-15.55-1.07,1.61,7.24,1.14,6.1,2.81,5.56,2.22,4.43,3.35.6.53,2.75-1.67,1.07,1.67,1.14.61,1.08V224.5l-.61,2.28.61,1.61,3.82,2.21L229,237.84l-18.37,13.88L209,253.46l-1.07-3.35-2.81,1.14V247.3l-1.68-3.89-.54-1.68L200.6,239l-2.21-.6h-2.21l-6.1-1.61-2.21-3.35-1.14-2.22,1.14-2.81-1.14-2.21L185.65,224l-1.74-2.28-2.21,1.14h-2.21l-2.22-1.6-2.21-2.28-2.28-1.68-1.61-2.21,1.14-2.22-.6-2.27-1.14-2.22L169,206.13v-2.21l-1.14-2.21-2.21-1.14,1.61-2.22h2.28l.6-2.21-2.28-2.21-2.21-.54-2.21-.6-2.22-.54L159,191.18,156.15,190l-2.74-2.21-2.28-1.75-1.61-2.21-1.68-2.21-1.14-3.35-.53-2.21-1.08-2.22-2.28-1.61-2.21-.6L138.39,170l-1.68-2.22-.53-2.21-.61-2.21-1.14-2.21-1.07-2.22-.54-2.28-.6-2.21L130,152.23l-.6-2.21-.54-2.22v-2.28l-.54-2.21-.53-2.21-1.14-2.21-1.08-2.21-1.74-2.22-1.07-2.28L121.63,130,120,127.76l-1.14-2.21v-2.22l-.6-2.21-.54-2.28-1.07-2.21-1.75-2.21-.46-2.21V110l-.61-2.28V105.5l-.53-2.21-.61-2.21-1.61-2.22V94.37l-.6-2.21L109.36,90l-1.61-2.22-.6-2.21-1.61-2.28V74.39l1.61-2.21V69.9l.6-2.21.54-2.21-2.22-1.61-2.27-1.75-2.22-1.07-2.21-.53-2.21-.61L95,59.38,93.81,55l-1.08-2.28-1.14-2.21-2.21-1.14H84.89l-2.75.6H79.93l-2.21-1.14L75.5,47.11l-2.21-2.22L71,42.61,68.8,41l-1.68-2.22L65,37.05,62.77,36,61,33.77l-2.21-2.22L56.6,30.41l-2.35-.6,1.14-2.21,1.68-2.21V23.17l.53-2.28V18.68l1.75-2.21,2.75-2.82,2.21-.53,1.61-2.22,1.2,1.21"/><path class="cls-1" d="M231.78,230.6,228,228.39l-.61-1.61.61-2.28V210.56l-.61-1.08-1.67-1.14,1.67-1.07-.53-2.75-3.35-.6-2.22-4.43-2.81-5.56-1.14-6.1-1.61-7.24,15.55,1.07v-3.35l.54-7.78,1.74-4.42-.6-4.49V142.24l2.81-1.14.47-7.17,1.14-13.41-.53-20.58-1.08-1.08L235.13,86l-1.61-1.07-.6-12.27,2.81.6,17.17.54.6-16.09,41.16,1.14,2.28,2.68,2.22,2.28L300.83,66l1.61,2.22,1.74,2.21,2.22,1.74.53,2.21,1.68,2.22,2.28,1.6,2.21,2.22,2.21,1.74,1.14,2.75,2.22,2.21,1.6,2.21,1.14,2.22,2.22,2.28,2.21,1.6,2.21,1.68,2.21,1.68,2.28,1.07,2.22,1.74,2.21,2.21.53,2.22,1.08,2.21v2.21l.6,2.28,1.14,2.21.54,2.22,1.67,2.21,1.14,2.21.47,2.21-.47,2.28.47,2.21.6,2.22.54,2.21.6,2.21,1.08,2.28,1.14,2.21,1.61,2.22,2.81,2.21,2.28-.54,1.61,2.21,2.21,1.68,2.21,2.21,2.22,1.14,2.28.54,2.81,1.14,1.08,2.21,2.21,1.14,2.28.54,2.21,1.67,1.61,2.22,2.21,1.14,2.28.47,2.21.6,2.22.53.6,1.75-24,38.28,6.17,43.91L367,245.55l-2.21-.47-2.21-2.21-2.21-1.74h-2.28l-2.22-.54-2.21.54-2.21,1.14-1.14,2.21-.6,2.21-1.61,2.21-.61,2.22-1.14,2.28-1.61,2.21-1.67,2.21h-2.21l-2.28-1.61L337,253.93l-2.21-1.07h-2.22l-2.75.54-2.27-1.14-2.22-.54-2.21.54h-2.21l-2.21.6-2.22-.6-2.28-1.14L312,248.37l-1.67-2.21L308,245.08l-2.22-.6-2.21-.54-2.21-2.21-2.21-1.68h-2.22l-2.28.54-2.21.54-1.07,2.21V250l-1.68,2.22-2.21.6-2.21,1.07-1.74,2.28v2.21l.6,2.22v2.21l-1.68,2.21-1.74,2.28v2.21l.6,2.75v2.21l-1.07,2.22-1.14,2.21-2.21,1.14-2.82.6-2.21-.6-2.75-.54h-4.49l-1.07-2.21v-4.49l-2.28-1.68-2.22-1.61v-2.81l1.15-2.28L258,262.85l-2.28-1.07H253.5l-2.21-.61L250.15,259v-4.49l-.54-2.21V250l.54-2.21v-2.28l-1.07-2.21-1.14-2.21-.61-2.22-1.61-2.21-1.14-2.21-2.21-1.68h-6.64l-2.21-1.67-1.74-.54"/><path class="cls-1" d="M444.3,318.49l6.71,8.38h7.77l-.53-21.18L461,302.4l2.21-1.14h6.7l2.21.54,2.82.6,2.75.47,2.21-.47-.53-2.28-2.82-1.07-2.21-1.14-2.22-1.07-2.21-1.14-2.21-2.21-2.28-2.22-1.61-2.21-1.67-2.28L461,284.57l-1.14-2.28-3.29-2.75-.54-2.21v-2.21l-.6-2.28-1.14-2.21v-2.22l-1.61-2.21-2.21-.6-2.21-.54-3-6.77,3.49-2.08,6.17-6.7,2.74-1.14h2.22l2.28-.54,1.67-2.28,2.21-1.61,1.14-2.21,1.08-2.21-2.82-4-4.56-4-3.22,3-.53-6.7,6.7-5.5,2.21-.61,2.22-1.07,1.67-2.21-.53-2.28,1.14-2.21,2.21-2.21,1.61-2.22h2.21l2.21,1.08,2.28.6,2.21-1.68,2.22-1.61,1.14-2.28v-2.21l-1.14-2.21L484.33,199l-1.08-2.21L481,194.47l-3.89-1.68-1.67-2.21-1.14-2.22-1.14-2.28-1.08-2.21L471,181.66l-1.08-2.21-2.21-1.61v-2.28l-.54-2.21-1.74-2.22-1.07-2.21-1.14-2.21-.54-2.21-1.07-2.28L461,160l-.54-2.22-2.21-2.21L456,153.37l-1.74-2.28-2.21-2.21-2.21-2.22-2.22-1.14-2.21-.53-2.28-1.14-1.07-2.21L439.88,140l-1.68-2.28L436,136.68h-2.21L431,135.54H418.69l-2.21-1.08-2.21-.6-2.21,1.68-2.28,1.14-2.22-.61-2.21-.53-2.21.53L401,137.75,399.25,140l-.47,2.21-.6,2.21v2.21l-.54,2.22-1.14,2.21-.54,2.28-2.27,2.21-.47,2.21L392.08,160l-1.68,2.21-2.28,1.14-1.07,1.14-24,38.28,6.16,43.91,2.22,1.14,1.74,2.21,1.61,2.22L377,253.4l1.74,2.21,1.61,2.21,1.14,2.21v2.82l-.53,2.21-.61,2.28-.53,2.21-.54,2.21-.54,2.75.54,2.22.54,2.81v2.21L378.73,284,377,286.25l-1.61,2.21-.6,2.21-1.07,2.21-.54,2.22v2.21l1.14,2.28,1.61,3.28,2.21,1.75,1.68,2.21.53,2.21,2.22,2.21,2.28,1.14,2.21.54,2.21,1.07,2.82,1.14h2.21l2.21-1.61,1.14-2.28,1.14-2.21v-2.21l1.61-2.21,2.21-.61,2.21-1.14,2.28-.47h6.64l2.21,1.08,2.28,1.14,2.69.53,2.27,1.07,2.22,1.14,1.07,2.22,1.74,2.21,2.22,1.74,2.74,1.08,2.22.53.6,2.21,1.61,2.22h2.28l2.21-.54,2.21-.54"/><path class="cls-1" d="M264.63,279.54l-1.07-2.21v-4.49l-2.28-1.68-2.22-1.61v-2.81l1.15-2.28L258,262.85l-2.28-1.07H253.5l-2.21-.61L250.15,259v-4.49l-.54-2.21V250l.54-2.21v-2.28l-1.07-2.21-1.14-2.21-.61-2.22-1.61-2.21-1.14-2.21-2.21-1.68h-6.64l-2.21-1.67-1.74-.54L229,237.84l-18.37,13.88L209,253.46l-1.07,2.22h-4.49l-.47,2.21-.6,2.21-1.14,2.21-1.08,2.28-1.67,2.21L199,269l.6,2.21v4.42l2.75,1.14,2.21.54,2.21-.54h4.49l2.22,1.14,2.21,1.61,2.21,2.21,2.82,2.22,1.14,2.28,1.07,2.21,2.28,2.21,2.21,1.07,2.21,1.75,1.14,2.21-.6,2.21,1.68,2.21L233,302.4l1.6,2.22.61,2.21,1.14,2.21h2.21l2.21-.6,1.14,2.81v2.28l-1.14,2.21,2.22,1.61,2.21,1.68,1.67,2.28,2.22,1.07h2.21l2.21,1.68,1.74,2.21-2.81,1.07-2.28-.47-2.21-1.14.6,2.22,2.21,1.67L253,330.7l2.21,1.74,2.22,1.07,1.6,2.21,1.15,2.21.6,2.29v2.21l-.6,2.21,2.21.54,2.21,1.67,1.68,2.22.53,2.27.54,2.22,1.74,2.21.47,2.21,1.14,2.21,1.68,2.22,2.28,3.35,2.21,2.75.54,2.21,1.07,2.28,2.21,1.07,1.74,2.22,2.21,1.13,2.22,1.68,2.21,2.21,1.74,2.28,1.08,2.22.53,2.21,2.21,1.14,2.28,1.6,2.22.61,2.21,1.07,2.21.54,2.21,1.74,1.75,2.21,1.07-2.21v-2.28l-.6-2.21v-4.42l.6-2.22,1.68-2.28L312,379.1l-2.21-2.21-2.21-1.68L306.4,373l-2.22-2.28L302.44,368l-.47-2.21-.6-2.82-1.61-2.21-1.14-2.21-.6-2.75v-2.21l-.54-2.22v-2.27l-1.07-2.22-.61-2.21-.53-2.21-.61-2.21-1.07-2.29-1.14-2.21-1.61-2.21-2.21-2.21-2.28-1.68-2.21,1.08-1.68,2.21-2.21.6L278,332.44l-1.07-2.28-.61-2.21v-4.43l-.53-2.21L274.69,319l-1.14-2.21-1.68-2.21-2.28-2.22L268,310.18,266.31,308l-.54-2.28-1.14-2.21L263,300.66l-.53-2.21-.54-2.75v-2.21l1.07-2.22v-6.7l-.53-2.21.53-2.21,1.68-.61"/><path class="cls-1" d="M458.78,326.87l-.53-21.18L461,302.4l2.21-1.14h6.7l2.21.54,2.82.6,2.75.47,2.21-.47-.53-2.28-2.82-1.07-2.21-1.14-2.22-1.07-2.21-1.14-2.21-2.21-2.28-2.22-1.61-2.21-1.67-2.28L461,284.57l-1.14-2.28-3.29-2.75-.54-2.21v-2.21l-.6-2.28-1.14-2.21v-2.22l-1.61-2.21-2.21-.6-2.21-.54-3-6.77,3.49-2.08,6.16-6.7,2.75-1.14h2.22l2.28-.54,1.67-2.28,2.21-1.61,1.14-2.21,1.08-2.21-2.82-4-4.56-4-3.22,3-.53-6.7,6.7-5.5,2.21-.61,2.22-1.07,1.67-2.21-.53-2.28,1.14-2.21,2.21-2.21,1.61-2.22h2.21l2.21,1.08,2.28.6,2.21-1.68,2.22-1.61,1.14-2.28,3.15,2.62-2.22,1.68-2.21,1.67-.53,2.21-.61,2.22.61,2.21,2.21,1.14,1.68,2.21.53,2.21V226l1.14,2.28,1.14,2.21v4.42l-2.28,1.75.54,2.21,2.21,2.21v2.21l.6,2.22,2.22,1.13,2.27,1.14,2.22,1.61v2.22l.53,2.21V256l1.68,2.28,2.15,1.68,2.21,1.14,1.74,2.21,2.75,1.07,2.21,1.14,2.21,1.61,2.22,1.14,2.21.6,2.28.47h2.21l2.21.61,1.75,2.21.47,2.28v4.42l-.47,2.21v6.71l2.68,1.07-.47,2.75-1.14,2.21L527,296.1l-2.28,2.21-1.61,2.22-2.21,1.67h-2.21l-2.82-.53h-2.21l-2.28,1.07L510.34,305l-1.14,2.28-.54,2.21v4.43l-.53,2.21-.54,2.21h-2.82l-2.21.61h-2.21l-2.21.53-2.22,1.68-1.13,2.28-2.22.47-1.67,2.28,1.67,2.21,1.68,2.21.54,2.21V340l.53,4.5,2.22,1.6,1.74,2.22-1.14,2.28-2.22,1.67-2.21.54-2.21.6-1.74,2.21-.54,2.22-.53,2.21-.54,2.75V365l-1.75,2.21h-2.21l-2.75-.47-2.21.47-1.68,2.28,1.68,2.22-1.07,2.21-2.28-.54-2.21-.6L472.59,375l-2.27.6-1.08-2.81v-2.22l-.6-2.21.6-2.21.47-2.75-1.07-4V355l-1.14-2.21-.47-2.21-1.74-2.28-.54-2.22v-2.74l1.14-2.82v-2.21l-.6-2.21-.54-2.22-2.21-2.28-3.35-3.28-.41-1.48"/><path class="cls-1" d="M369,246.83l-2.21-1.08-2.21-.53L362.31,243l-2.21-1.74h-2.22l-2.21-.47-2.21.47-2.28,1.14-1.07,2.21-.6,2.22L347.9,249l-.61,2.28-1.14,2.21-1.61,2.21L342.8,258h-2.21l-2.21-1.6-1.61-2.22L334.49,253h-2.21l-2.75.54-2.22-1.14-2.21-.54-2.21.54h-2.21l-2.28.6-2.22-.6L314,251.32l-2.21-2.75L310,246.36l-2.22-1.14-2.21-.61-2.21-.53-2.21-2.22-2.28-1.67h-2.21l-2.22.6-2.21.47-1.14,2.21v6.71l-1.61,2.21-2.21.6L285,254.13l-1.68,2.22v2.21l.61,2.21V263l-1.75,2.28-1.67,2.21v2.22l.6,2.75v2.21L280,276.86l-1.07,2.21-2.28,1.14-2.82.61-2.21-.61-2.75-.53h-2.21l-2-.14-1.68.61-.53,2.21.53,2.21v6.71l-1.07,2.21v2.21l.54,2.75.53,2.21,1.68,2.82,1.14,2.21.54,2.28,1.67,2.21,1.61,2.21,2.28,2.22,1.68,2.21,1.14,2.21,1.07,2.28.53,2.21V328l.61,2.21,1.07,2.28,2.28,1.07,2.21-.6,1.68-2.21,2.21-1.08,2.28,1.68,2.21,2.21,1.61,2.21,1.14,2.22,1.07,2.28.61,2.21.53,2.21.61,2.21,1.07,2.22v2.28l.54,2.21v2.21l.6,2.75,1.14,2.21,1.61,2.21.6,2.82.47,2.21,1.74,2.75L306.4,373l1.14,2.21,2.21,1.68L312,379.1l-.2,1.48h4.42l7.78,3.95.6,5-2.81,2.82-2.21,2.21L319,396.8l4.49,1.61,2.21-2.21,5-1.68,8.38.54,1.14,2.21.47,2.21,1.13.61,1.68.53,1.68-1.14,1.67.61.54,5,2.82-6,1.13-16.16,1.08-12.8,5-6.64,6.7-3.35-.53-1.68L361.84,355l2.21-9.45,15.56-14.41,16.15,1.6,10.53-3.35.6-15.55-5.56-6.64-2.55-.4V309l-1.14,2.21-1.14,2.28-2.21,1.61h-2.21L389.26,314l-2.21-1.07-2.21-.54-2.28-1.14L380.34,309l-.53-2.21-1.68-2.21-2.21-1.75-1.61-3.28-1.14-2.28V295.1l.54-2.22,1.07-2.21.6-2.21,1.61-2.21,1.74-2.28,1.08-2.21v-2.22l-.54-2.81-.54-2.22.54-2.74.54-2.22.53-2.21.61-2.28.53-2.21V260l-1.14-2.21-1.61-2.21L377,253.4l-2.21-1.14L373.17,250l-1.74-2.21-2.42-1"/><path class="cls-1" d="M352.39,446.81l-2.82-.6-2.21-1.07-1.61-2.28h-2.28l-.6,2.28v2.21l2.28,2.21,1.07,2.21.6,2.22-1.67,2.27-2.28,1.68-.47,2.75v2.21l.47,2.21-.47,2.22-2.21,1.14h-2.28l-1.68-2.21v-6.71l-1.14-2.21-2.21-1.61L330.67,454l-2.22-1.61h-2.21L324,453.52l-1.61,2.21-1.14,2.21L319,459.08l-2.21.47-2.21.6-1.75,2.22-1.07,2.21-2.21.53L307.27,464h-2.21L304,461.29l1.08-2.21,1.74-2.28,1.61-2.21,2.21-2.21,1.14-2.22.6-2.21.47-2.81v-2.28l.61-2.22.53-2.21-.53-2.21L311.76,434l-2.21-1.14-2.28-2.75-1.61-2.21-.6-2.22L304,422.88l-1.14-2.21-.53-2.28-1.08-2.21-.6-2.22v-6.64L300.1,405l-.61-2.21-.54-2.21,2.28-.54,2.22-1.07-.61-2.21,3-2.08,1.75,2.21,1.07-2.21v-2.28l-.6-2.21V385.8l.6-2.21,1.68-2.28,1.47-.74h4.42l7.78,4,.6,5-2.81,2.82-2.21,2.21L319,396.8l4.49,1.61,2.21-2.22,5-1.67,8.38.54,1.14,2.21.47,2.21,1.13.6,1.68.54,1.68-1.14,1.67.6.54,5-.54,2.82L344,415.7l5,8.25.53,2.28L348,435.08l5.57,6.17-.61,5.56h-.53"/><path class="cls-1" d="M435.25,426.23,433,424l-1.14-2.21-2.21-1.61h-2.22l-2.74,1.14-2.82,1.07L419.7,424,418,426.77l-2.21,2.28-2.21,1.07-2.22.53h-4.49l-2.21-.53-2.21-1.07-2.21-.61H398l-2.28.61-1.67,2.21v2.21l1.14,2.21.53,2.22-1.07,2.27-1.14,2.22-4.42,3.28-2.22,1.68-2.27.6h-4.43l-2.21.47h-2.22l-2.27-.47-2.82-.6-2.21.6L366.26,449l-2.21.54-2.21-.54-2.28-2.21-1.07-2.21v-2.21l.6-2.22,1.07-2.27,1.14-2.22.54-2.21,1.07-2.21.61-2.21,1.14-2.28,1.07-2.22h2.21l2.28,1.14h2.21l2.22-1.74v-2.21l-1.14-2.21,1.67-2.22h4.43l.6-2.21,1.14-2.21.47-2.28.6-2.21v-2.22L381.35,404l-2.28-1.67-2.21-.54-2.21,1.07L372.43,405l-1.14,2.28-.6,2.22-2.21,1.67-2.22.54-.53-2.21-.6-2.22V405l.6-2.21,1.14-2.21.54-2.21-.54-2.22-2.21-1.13-2.28,1.74-.54,2.21-.54,2.21v2.22l-1.14,2.21H358v-4.43l.54-2.21.6-2.21,1.61-2.28,2.21-2.21-.53-2.22-1.68-2.21-2.21-.6-2.21.6L354,389.49v2.21l.6,2.28,1.68,2.21,1.07,2.22-.47,2.21-2.28,1.14-2.21,1.07L350.18,404,347.36,405l-.54,2.82L344,415.7l5,8.25.53,2.28L348,435.08l5.57,6.17-.61,5.56h-.53l-2.82-.6-2.21-1.07-1.61-2.28h-2.28l-.6,2.28v2.21l2.28,2.21,1.07,2.21.6,2.22-1.67,2.27-2.28,1.68-.47,2.75v2.21l.47,2.21-.47,2.22-2.21,1.14h-2.28l-1.68-2.21v-6.71l-1.14-2.21-2.21-1.61L330.67,454l-2.22-1.61h-2.21L324,453.52l-1.61,2.21-1.14,2.21L319,459.08l-2.21.47-2.21.6-1.75,2.22-1.07,2.21-1.14,1.68,1.14,2.21v2.21l-2.21,1.14-2.28.6-2.21.47h-2.22l-2.21.6-2.21.54-2.28,2.21.6,2.22,1.14,2.21,2.21,2.28.54,2.21-.54,2.21v2.21l1.61,2.22,2.28,1.14,2.22,2.21,1.07,2.21,1.14,2.28,1.14,2.21,1.67,2.22,1.61,2.81,1.75,2.21.53,2.22v3.88l2.21,1.08,2.82,1.14,2.21,1.14,2.21,2.21,2.22.6,1.14-2.28-.61-1.67,2.22-.54h2.28l2.81.54,2.75.6,2.21.54h2.82l2.21-.54,2.21-.6,2.22-1.14,2.27-1.61,2.22-1.14,2.21.53,2.21.61h2.75l2.21-.61,2.22.61.6,2.21,1.14,2.21,1.07,2.75v4.49l-1.07,2.22.54,2.21h2.21l2.21-1.14H374l2.21,2.28,2.28.54,2.22-1.08,2.21-2.21,2.21-2.21,2.21-2.28,2.82-1.07h4.49l2.21-1.14,2.22-1.68,1.14-2.21.53-2.28-.53-2.22h-4.5L393.55,513l-1.07-2.28-.6-2.21v-2.21l1.67-2.21.54-2.22-2.21-2.21-2.22-1.14-2.28-1.14H383l-2.21-.47-2.22-1.74v-2.21l1.08-2.22,2.21-1.67h6.7l2.22.53H393l1.14-2.21.6-2.21h4.43l2.21.6,2.28-1.74,1.07-2.21,2.21-1.14h2.28l2.21-1.61,2.22-.6,2.21.6,2.21-1.68,1.68-2.21,1.07-2.75-.47-2.28-1.74-2.21L417,465.72l.47-2.21,2.28-1.75,2.21-2.21,2.21-2.21,1.68-2.22,1.14-2.21,2.21-2.21L431.9,448l1.74-2.28.47-2.21-.47-2.21L432.5,439l-2.21-2.22v-2.21l1.07-2.28,1.14-2.21,2.22-2.21.53-1.68"/><path class="cls-1" d="M424.32,421.27l-2.41,1.07L419.7,424,418,426.77l-2.21,2.28-2.21,1.07-2.22.53h-4.49l-2.21-.53-2.21-1.07-2.21-.61H398l-2.28.61-2.21.47-2.21.6-2.21-1.68-1.75-2.21-.47-2.28-.6-2.21v-2.21l.6-2.22,1.61-2.21,2.22-.54L393,414h2.28l2.21-1.61,2.21-1.74,2.21-1.61,2.22-1.68,2.21-1.14,2.28-1.14,2.21.61,2.21.53,1.75,2.22,2.21,2.21,1.61,2.28,1.74,2.21,1.07,4.43,2.95,1.74"/><path class="cls-1" d="M425.8,403.44l-11.06-13.35-.61-2.81-.53-2.21v-3.36l-1.75-1.6V372.8L420.3,365,433,355.63l8.92-6.7,10-16.16,6.16-5,1.08.54,3.35,3.28,2.21,2.28.54,2.22.6,2.21v2.21l-1.14,2.82v2.74l.54,2.22,1.74,2.28.47,2.21,1.14,2.21v4.43l1.07,4-.47,2.75-.6,2.21.6,2.21v2.22l1.08,2.81,2.27-.6,1.08-2.21,2.21.6,2.28.54,1.07-2.22,2.21,1.68-1.07,2.21v2.28l2.21-1.14,2.22-.6.53,2.21-2.21,1.14,1.07,2.22,2.21-1.15,2.29.61,1.07,2.21-1.07,2.28-2.29.47-2.21,1.74,1.14,2.21,2.21.54,2.22,1.07,2.81.61,2.22.53,2.27.61,2.75-.61L502,394l2.21,1.68,2.21,2.21,1.14,2.21,1.07,2.22,2.28,1.67,2.22.61h10l2.22-.61,2.28-.53h2.21l2.21,1.14,2.21,1.07,2.21,2.21,1.15,2.28v2.21l-1.15,2.21-1.6,2.22-.61,2.21-.53,2.28v4.43l-.61,2.21-1.61,2.21-2.21,1.68L528.17,434,526,435.68l-2.21,2.22-.61,2.27,1.14,2.22.61,2.21-1.75,2.21-2.21-1.67L518.72,444l-2.21-.54-2.28-1.07-1.07-2.22L512,437.9l-1.07-2.22-1.14-2.21-2.21.54-2.21,1.07-1.68,2.28-2.21,2.21-2.21-1.14-2.22-1.61-6,2.35-3.35-1.07-2.42-1.88-2.21-.54-2.28-1.07-2.21-1.14-2.21-1.67-2.22-1.15-2.21.61-1.14,2.21-2.21,2.21-2.21,1.14-2.22-.6-2.74-.54L459.19,434l-1.68-2.21-2.21-2.28-1.68-2.22H438.07l-2.21-1.07,1.07-2.28,1.14-2.21,1.61-2.21v-6.64l1.14-2.28V408.4l-1.14-2.21,1.14-2.22,1.67-2.21-1.67-2.28-2.22-2.21h-2.21L434.11,399l-2.21,2.21-2.21,1.61-2.22.61H425.8"/><path class="cls-1" d="M491.1,439.17l-3.35-1.07-2.42-1.88-2.21-.54-2.28-1.07-2.21-1.14-2.21-1.67-2.22-1.15-2.21.61-1.14,2.21-2.21,2.21-2.21,1.14-2.22-.6-2.74-.54L459.19,434l-1.68-2.21-2.21-2.28-1.68-2.22H438.07l-2.21-1.07h-.61l-.53,1.68-2.22,2.21-1.14,2.21-1.07,2.28v2.21L432.5,439l1.14,2.21.47,2.21-.47,2.21L431.9,448l-2.75,2.75-2.21,2.21-1.14,2.21-1.68,2.22-2.21,2.21-2.21,2.21-2.28,1.75-.47,2.21,1.61,2.21,1.74,2.21.47,2.28-1.07,2.75L418,477.38l-2.21,1.68,1.27,2.41,2.22,1.08,1.74,2.21,2.21,1.74h2.21l2.75-.6,2.21-1.61L431,482l2.21-1.07,2.21,1.61V487l.54,2.21,1.14,2.21,2.21,1.68,2.21-.6.61-2.22,2.21-.47h2.21l2.21.47,2.28.61h2.22l2.21,1.61,2.21,1.74h2.21l2.28.53,2.22.54h4.42l2.21-1.07,1.68-2.21,2.21-1.14,2.21-.61,1.14-2.21-1.14-2.21-2.21-1.61-2.21-1.74-2.21-2.22-1.14-2.21-1.14-2.21v-4.49l-.47-2.22L466.63,467l.53-2.21,1.68-2.21,2.21-1.14h2.28l2.21-.54,1.61-2.21,2.22-2.21,2.27-1.14,2.22-2.22,1.67-2.21,2.22-.6,2.28.6,2.21-1.14,2.21-2.21-1.14-2.21-.6-2.21v-2.22l-1.61-1.74"/><path class="cls-1" d="M522.81,447.55l-2.28.54-2.21,1.07H516.1l-2.21,1.14-2.21,1.14-2.28.53h-2.21l-1.07,2.28-1.68,2.22-1.07,2.21-2.22,2.21L500,463.1l-.6,2.28-.53,2.22v2.21l-.61,2.21-1.07,2.21L495,475.91l-2.28,1.67-2.22,2.22L488.28,482v2.28l-1.07,2.21-2.28,2.21-1.61,2.21-2.21,1.15h-6.77l.6-1.15,2.21-.6,1.14-2.21-1.14-2.21-2.21-1.61-2.21-1.74-2.21-2.22-1.14-2.21-1.14-2.21v-4.49l-.47-2.22L466.63,467l.53-2.21,1.68-2.21,2.21-1.14h2.28l2.21-.54,1.61-2.21,2.22-2.21,2.27-1.14,2.22-2.22,1.67-2.21,2.22-.6,2.28.6,2.21-1.14,2.21-2.21-1.14-2.21-.6-2.21v-2.22l-1.61-1.74,6-2.35,2.22,1.61,2.21,1.14,2.21-2.21,1.68-2.28,2.21-1.07,2.21-.54,1.14,2.21L512,437.9l1.15,2.27,1.07,2.22,2.28,1.07,2.21.54,2.21,1.14,2.21,1.67-.33.74"/><path class="cls-1" d="M522.81,447.55l-2.28.54-2.21,1.07H516.1l-2.21,1.14-2.21,1.14-2.28.53h-2.21l-1.07,2.28-1.68,2.22-1.07,2.21-2.22,2.21L500,463.1l-.6,2.28-.53,2.22v2.21l-.61,2.21-1.07,2.21L495,475.91l-2.28,1.67-2.22,2.22L488.28,482l1.14.54,2.82.6,2.21,1.14,1.61,2.21,2.21.54,2.28-.54,2.21,1.61,1.07,2.21.61,2.22,1.14,2.27,2.21,1.68H510l2.75-1.14-.53-2.21,1.13-2.22h2.22l2.21,1.15,1.14,2.21.54,2.21,1.07,2.21,2.28.54,2.21-1.61,2.21-.6h2.22l1.14,2.21v2.21l.6,2.21,1.61,2.28,2.21.54,2.21,1.14,2.28-1.14,2.21-2.21,1.08-2.21v-4.43l1.14-2.28.6-2.21.54-2.22.53-2.21,1.14-2.21.54-2.21.6-2.28L549,479.8l1.67-2.22,1.68-2.21,1.61-2.21,1.74-2.81v-4.5l-1.74-2.21-2.22-.54-1.61,2.28v2.22l-1.74,2.21L547.28,472l-2.21,1.14-2.28.47h-6.64l-1.68-2.21,1.14-2.22,1.61-2.74,2.28-1.08,2.21-1.14,2.22-2.21,1.67-2.21.54-2.28-1.07-2.21-.54-2.22-.6-2.21-1.61-2.21L540,447l-2.21-1.08-.61-2.21v-2.28l-.47-2.21V437l-.6-2.22v-4.49l-.54-2.21-2.48-.07-1.61,2.22-2.21,1.67-1.14,2.21L526,435.75,523.75,438l-.61,2.28,1.14,2.21.61,2.22-1.75,2.21-.33.67"/><path class="cls-1" d="M483.32,492.54l-1.14,2.81-.54,2.75-.53,2.28v2.21L480,504.8,478.9,507l-1.75,2.21-.53,2.21-.54,2.28v2.21l.54,2.21v4.43l-.54,2.82-1.14,2.27-1.14,2.22-1.07,2.75-1.68,2.21L470,537.05l-2.21,1.14-2.28,2.21v2.82l.53,2.21,1.14,2.21.61,2.22-1.14,2.28h-6.71l-2.21-1.75H455.5l-2.21-1.61-2.22-1.14-2.28-.6-2.21,1.14-2.21-.54-2.21-.6h-2.22l-2.21.6-2.28,1.68-2.21.54L431,547.64l-2.22-1.07-2.21-.6-2.28.6h-2.21l-2.21.47-1.14,2.28v2.21l1.14,2.21.53,2.22-1.13,2.21-2.22,1.14-2.21,1.07-2.21.61v8.91h-2.28l-2.21-.6L406,568.23h-2.74l-2.22-.54-2.21-1.14-2.28-.6h-6.64l-2.21-1.08-2.28-2.21-2.21-1.14L381,561l-2.22-.61-2.21-.47-2.21-.6L372,557.63l-2.21-1.07-1.07-2.21-1.14-2.21-1.14-2.28-1.68-2.22.6-2.21.47-2.21-.47-2.21,1.61-4.49.61-2.22.53-2.21,1.48-1.34,2.21-1.14H374l2.21,2.28,2.28.54,2.22-1.08,2.21-2.21,2.21-2.21,2.21-2.28,2.82-1.07h4.49l2.21-1.14,2.22-1.68,1.14-2.21.53-2.28-.53-2.22h-4.5L393.55,513l-1.07-2.28-.61-2.21v-2.21l1.68-2.21.54-2.22-2.22-2.21-2.21-1.14-2.28-1.14H383l-2.21-.47-2.22-1.74v-2.21l1.08-2.21,2.21-1.68h6.7l2.22.53H393l1.14-2.21.6-2.21h4.43l2.21.6,2.28-1.74,1.07-2.21,2.21-1.14h2.28l2.21-1.61,2.22-.6,2.21.6,1.27,2.41,2.22,1.08,1.74,2.21,2.21,1.74h2.21l2.75-.6,2.21-1.61L431,482l2.21-1.07,2.21,1.61V487l.54,2.21,1.14,2.21,2.21,1.68,2.21-.6.61-2.22,2.21-.47h2.21l2.21.47,2.28.6h2.22l2.21,1.62,2.21,1.74h2.21l2.28.53,2.22.54h4.42l2.21-1.07,1.68-2.21h8.38l2.21-1.15v1.62"/><path class="cls-1" d="M368.14,532.09l-.53,2.21-.61,2.22L365.39,541l.47,2.21-.47,2.21-.53,2.28-1.68-2.28-1.74-2.21L359.83,541l-1.74-2.28-2.22-1.68-2.21-1.14-2.21-1.07L347,532.09l-2.22-1.74-2.21-2.22-2.75-.47-2.21-1.74-2.21-1.07h-2.28l-2.21-1.14L326.71,521l1.21-1.95-.61-1.67,2.22-.54h2.28l2.81.54,2.75.6,2.21.54h2.82l2.21-.54,2.21-.6,2.22-1.14,2.27-1.61,2.22-1.14,2.21.53,2.21.61h2.75l2.21-.61,2.22.61.6,2.21,1.14,2.21,1.07,2.75v4.49l-1.07,2.22.54,2.21h2.21l-1.48,1.34"/><path class="cls-1" d="M532.8,505.94l-1.61-2.28-.6-2.21v-2.21L529.45,497h-2.22l-2.21.6-2.21,1.61-2.28-.54-1.07-2.21-.54-2.21-1.14-2.21-2.21-1.15h-2.22l-1.13,2.22.53,2.21L510,496.49h-2.21l-2.21-1.68-1.14-2.27-.6-2.22-1.08-2.21-2.21-1.61-2.28.54-2.21-.54-1.61-2.21-2.21-1.14-2.82-.6-1.14-.54v2.28l-1.07,2.21-2.28,2.21-1.61,2.21v1.62l-1.14,2.81-.54,2.75-.53,2.28v2.21L480,504.8,478.9,507l-1.75,2.21-.53,2.21-.54,2.28v2.21l.54,2.21v4.43l-.54,2.82-1.14,2.27-1.14,2.22-1.07,2.75-1.68,2.21L470,537.05l.54,1.68V541l1.07,2.21,1.14,2.21,1.07,2.21,1.14,2.22,2.21.53,2.82-.53,2.21-2.22,2.28-2.21h2.21l2.75.54h2.21l1.68-2.22,1.14-2.27,2.21-1.61,2.22.53,2.27.61,2.69-1.14,1.74-2.22,1.61-2.21,2.21-2.21L510,531l.54-2.21v-2.82l-.54-2.21-1.07-2.21v-2.75l1.61-2.21,2.21-2.22L514.5,512v-2.21l2.21-.6,1.61,2.21,2.21,2.28v6.64l.6,2.21v4.49l2.22.6,2.27,2.22,1.08,2.21,2.21.54,1.68-2.28.6-2.22.47-2.21.6-2.21V521.5l-.6-2.22-.47-2.27-.6-2.22v-4.42l-.54-2.21,1.61-2.22h1.14"/><path class="cls-1" d="M521.13,527.06v-4.49l-.6-2.21v-6.64l-2.21-2.28-1.61-2.21-2.21.6V512l-1.75,2.28-2.21,2.22-1.61,2.21v2.75l1.07,2.21.54,2.21v2.82l1.14-1.08,2.21-.6,2.21.6h2.22l2.81-.6"/><path class="cls-1" d="M521.13,527.06l2.22.6,2.27,2.22,1.08,2.21,2.21.54,1.14,1.67v4.43l1.61,2.75-.47,2.27v6.64l-2.28.61-2.21,1.14-2.21,1.07-2.22,2.21h-2.21l-1.74-2.21-2.22-1.07-2.21-1.75-2.21-1.07L509.4,547h-2.21L505,546l-1.15-2.22-.46-2.27.46-1.61,1.75-2.22,1.61-2.21,2.21-2.21L510,531l.27-2.15,1.41-1.14,2.21-.6,2.21.6h2.22l2.81-.6"/><path class="cls-1" d="M542.79,499.84v2.22l-1.08,2.21-2.21,2.21-2.28,1.14L535,506.48l-2.21-.54h-1.14l-1.61,2.22.54,2.21v4.42h1.07l2.28-1.61,2.21-.6,2.21,1.74,1.68,2.22,1.67,2.21,2.22,1.61,2.21,2.21,2.21,1.14,2.28-1.14,2.21-.47h2.22l2.21-1.14,2.21-2.21,2.21-1.14,2.28-1.07v-2.22l-2.28-1.74-2.21-2.21-2.21-1.14-2.21-1.07-2.22-2.22-2.21-1.67-2.28-.61-2.21-1.6-2.21-2.22h-1.14"/><path class="cls-1" d="M458.78,326.87H451l-6.71-8.38-2.21.54-2.21.54H437.6L436,317.35l-.6-2.21-2.22-.53-2.74-1.08-2.22-1.74-1.74-2.21-1.07-2.22-2.22-1.14-2.27-1.07-2.69-.53-2.28-1.14-2.21-1.08h-6.64l-2.28.47L402.6,304l-2.21.61.94,2.61,5.56,6.64-.6,15.55-10.53,3.35-16.15-1.61-15.56,14.42L361.84,355l1.68,3.35.53,1.68-6.7,3.35-5,6.64-1.08,12.8L350.18,399l-2.82,6,2.82-1.07,2.21-1.14,2.21-1.07,2.28-1.14.47-2.21-1.07-2.22L354.6,394l-.6-2.28v-2.21l2.28-1.61,2.21-.6,2.21.6,1.68,2.21.53,2.22-2.21,2.21-1.61,2.28-.6,2.21-.54,2.21v4.43h2.21l1.14-2.21v-2.22l.54-2.21.54-2.21,2.28-1.74,2.21,1.13.54,2.22-.54,2.21-1.14,2.21-.6,2.21v2.28l.6,2.22.53,2.21,2.22-.54,2.21-1.67.6-2.22,1.14-2.28,2.22-2.21,2.21-1.07,2.21.54,2.28,1.67,1.07,2.21v2.22l-.6,2.21-.47,2.28-1.14,2.21-.6,2.21h-4.43l-1.67,2.22,1.14,2.21V424l-2.22,1.75h-2.21l-2.28-1.15h-2.21l-1.07,2.22-1.14,2.28-.61,2.21-1.07,2.21-.54,2.21-1.14,2.22-1.07,2.27-.6,2.22v2.21l1.07,2.21,2.28,2.21,2.21.54,2.21-.54,2.22-1.07,2.21-.6,2.82.6,2.27.47H378l2.21-.47h4.43l2.27-.6,2.22-1.68,4.42-3.28,1.14-2.22,1.07-2.27-.53-2.22-1.14-2.21v-2.21l1.67-2.21,2.28-.61h2.22l2.21.61,2.21,1.07,2.21.53h4.49l2.22-.53,2.21-1.07,2.21-2.28L419.7,424l2.21-1.61,2.82-1.07,2.74-1.14h2.22l2.21,1.61L433,424l2.21,2.28h.61l1.07-2.28,1.14-2.21,1.61-2.21v-6.64l1.14-2.28V408.4l-1.14-2.21,1.14-2.22,1.67-2.21-1.67-2.28-2.22-2.21h-2.21L434.11,399l-2.21,2.21-2.21,1.61-2.22.61H425.8l-11.06-13.35-.61-2.81-.53-2.21v-3.35l-1.75-1.61V372.8L420.3,365,433,355.63l8.92-6.7,10-16.16,6.83-5.9"/><path class="cls-1" d="M491.63,209.55l2.22,1.61,2.21,1.74,1.74,2.22.47,2.21.61,2.21-1.68,2.21.6,2.28v2.21l.47,2.22,1.14,2.21v2.21l.6,2.28.54,2.21v4.43l2.21,2.21,1.08,2.21-.47,2.28,2.21.47,2.21,1.14,1.14,2.21,2.21,1.75,2.21.47,2.22-.47,2.21,1.07,2.28,1.14,2.21,1.61,2.22,1.14,2.21.53,2.21.54,2.28.6,2.21,1.14,2.21,1.08,2.22,1.67,2.21.54,2.28,1.14h4.42l2.75.53h4.43l2.21-.53,2.28.53,1.07,2.22,1.14,2.21,2.21.6,2.82-1.14,2.21-1.67h2.21l.54,2.21v2.21l.6,2.21v2.28l-1.67,2.22-1.68,2.21-1.07,2.21-1.14,2.21-1.07,2.28v4.43L564,295.7l-1.14,2.21h-2.21L559,295.7l-2.28-2.21-2.21-.54-.6,2.21v2.28l-.47,2.22-.61,2.21v2.21l.61,2.21.47,2.75v2.21l1.14,2.28.6,2.22.47,2.21v8.91l-.47,2.22v2.21l-.6,2.21v4.43l-.54,2.28v2.21l-.6,2.21v2.21l-.47,2.22v4.49l.47,2.21.6,2.21v5l1.14,4.49.47,2.21v4.43l1.14,2.75.6,2.21.54,2.21-.54,2.28-1.74,2.22-.47,2.21-1.74,2.21-1.61,2.21v2.28l1.14,2.21v2.22l-.61,2.21v2.21l1.08,2.21,1.14,2.28v2.22L552.84,412h-2.21L549,414.16l-1.68,2.28-2.21,1.08-2.28-.61-1.61-2.21L539,413.63l-1.35-1.28v-2.21l-1.14-2.28-2.21-2.21-2.21-1.07-2.21-1.14h-2.21l-2.28.53-2.22.61h-10l-2.22-.61-2.28-1.67-1.07-2.21-1.14-2.22-2.21-2.21L502,394l-2.22-1.14-2.75.61-2.27-.61-2.22-.53-2.81-.61-2.22-1.07-2.21-.54-1.14-2.21,2.21-1.74,2.29-.47,1.07-2.28-1.07-2.21-2.29-.6-2.21,1.14-1.07-2.22,2.21-1.14-.53-2.21-2.22.6-2.21,1.14v-2.28l1.07-2.21-2.21-1.67-1.68-2.22,1.68-2.28,2.21-.47,2.75.47h2.21l1.75-2.21v-2.21l.54-2.75.53-2.21.54-2.22,1.74-2.21,2.21-.6,2.21-.54,2.22-1.67,1.14-2.28-1.74-2.22-2.22-1.6-.53-4.5v-7.24l-.54-2.21-1.68-2.21-1.67-2.21,1.67-2.28,2.22-.47,1.13-2.28,2.22-1.68,2.21-.53h2.21l2.21-.61h2.82l.54-2.21.53-2.21v-4.43l.54-2.21,1.14-2.28,1.07-2.21,2.28-1.07h2.21l2.82.53h2.21l2.21-1.67,1.61-2.22L527,296.1l1.68-2.28,1.14-2.21.47-2.75-2.68-1.07v-6.71l.47-2.21v-4.42l-.47-2.28L525.89,270l-2.21-.61h-2.21l-2.28-.47-2.21-.6-2.22-1.14-2.21-1.61-2.21-1.14-2.75-1.07-1.74-2.21L503.64,260l-2.15-1.68L499.81,256V253.8l-.53-2.21v-2.22l-2.22-1.61-2.27-1.13-2.22-1.14-.6-2.22v-2.21l-2.21-2.21-.54-2.21,2.28-1.75v-4.42l-1.14-2.21L489.22,226v-2.22l-.53-2.21L487,219.34l-2.21-1.14-.61-2.21.61-2.22.53-2.21,2.21-1.67,2.22-1.68,1.87,1.34"/><path class="cls-1" d="M557.87,422l1.14,2.21,2.21,1.61,1.61,2.21,1.75,2.21,2.21,1.14,1.07,2.22,1.68,2.21L569,438.1l-2.21.53-2.21-.53-1.14-2.28-1.14-2.21-1.08-2.22-.6-2.21-.54-2.21L559,424.69,557.87,422"/><path class="cls-1" d="M697.45,589.34l2.22-2.21L703,586l1.74-2.21.47-2.21-.47-2.28L703,577.08l-1.61-2.22-1.74-2.21-2.22-2.21-2.21-1.68-1.61-2.21-2.21-2.21-1.74-2.22-2.22-2.21-1.13-2.28v-2.21l-2.75-2.21h-2.22l-2.21,1.14-2.21.47h-2.21l-2.28-.47-2.22-1.14-.6-2.21-1.07-2.22-1.14-2.21-1.61-2.28-.6-2.21L663,540.4l-2.21-1.14-2.28-2.21h-2.21l-2.75-1.14-2.82-1.07H646.3l-2.21-.54-2.28-.6-2.75-.47h-2.21l-2.22-.6-2.21,1.07,2.21,1.14,2.22,1.07-1.68,2.28-2.21-.54-2.75.54L628,537.05l-.6-2.21-1.15-2.21-1.14-2.28-2.21-1.08-1.61-2.21-2.21-1.68-1.74-2.81-2.21-1.07-1.61-2.22-2.22-1.14-1.74-2.21-1.07-2.21-.54-2.28-1.14-2.21L605.14,507l-.54-2.22v-3.35l-1.14-2.21L602.39,497l-1.14-2.22-1.07-2.27-1.75-2.22-1.07-2.21-1.14-2.21-1.14-2.21-1.61-2.22-1.68-2.28-2.27-1.61-2.22-2.21-2.21-1.74L582.88,472l-1.14-2.21-1.61-2.21L579,465.38l-2.21-2.28-1.68-2.21-2.28-2.21-1.61-2.21-2.28-2.15,2.28-.07L570.07,452,569,449.76l-.6-2.21v-4.42l.6-2.22,2.21-2.28,1.61-2.21-.47-2.21-.6-2.22-2.21-1.74-2.28-1.61-2.21-2.21-1.61-2.21L561.69,422l-1.61-2.28-.6-2.21-1.07-2.22-.54-2.21-1.14-2.21-1.67-.61L552.84,412h-2.21L549,414.16l-1.68,2.28-2.21,1.08-2.28-.61-1.61-2.21L539,413.63l-1.35-1.28-1.14,2.21-1.6,2.22-.61,2.21-.53,2.28v4.42l-.61,2.28,2.48.07.54,2.21v4.49l.6,2.22v2.21l.47,2.21v2.28l.61,2.21L540,447l2.28,1.74,1.61,2.21.6,2.21.54,2.22,1.07,2.21-.54,2.28L543.93,462l-2.22,2.21-2.21,1.14-2.28,1.08-1.61,2.74-1.14,2.22,1.68,2.21h6.64l2.28-.47,2.21-1.14,1.07-2.21,1.74-2.21v-2.22l1.61-2.28,1.75,1.14,1.07-2.21,2.21-2.21,2.28,1.61v4.42l.47,2.21,2.82,1.75h2.28l1.07,2.21-1.07,2.21-2.28.54L560.62,477v4.49l.6,2.22,1.08,2.21,2.28,1.14,2.21.53L569,485.9l.54-2.21,2.21-2.22L574,482l2.21,1.14,2.22.54.6,2.21-.6,2.21-.47,2.21-1.14,2.82-1.14,2.21-1.07,2.28-.61,2.21-.53,2.22-1.08,2.21-.6,2.21v2.28l.6,2.21,2.75,2.21,2.21,1.14,2.22.47h2.21l2.21-.47,1.14,2.22L584,518.75l-2.21.53L579.53,521l-1.14,5v2.21l-1.08,2.22-.53,2.28v4.42l1.14,2.21,2.21,1.14,2.21.61,1.61,2.21,1.14,2.21,2.21.54,2.22-1.14,2.27-2.21,2.22.6,1.67,2.21,1.68,2.21,1.07-2.21v-2.21l1.75-2.21,2.21,2.21,1.61,2.21,1.74,2.21,1.07,2.22,1.68,2.28,2.21,1.07,2.21,1.14,2.22.47,2.21,1.14H624l2.22.6,1.14,2.21,1.07,2.22v4.49l-1.61,2.21h-.6v4.42l2.21,3.89,2.81,5h3.35l3.36-1.74,2.75-3.29,3.35-2.28,5-5,2.21,11.67,8.31,5L663,590h33.39l1.07-.61"/><path class="cls-1" d="M531.66,514.79l2.28-1.61,2.21-.6,2.21,1.74,1.68,2.22,1.67,2.21,2.22,1.61,2.21,2.21,2.21,1.14,2.28-1.14,2.21-.47h2.22l2.21-1.14,2.21-2.21,2.21-1.14,2.28-1.07v-2.22l-2.28-1.74-2.21-2.21-2.21-1.14-2.21-1.07-2.22-2.22-2.21-1.67-2.28-.61-2.21-1.6-2.21-2.22h-1.14l1.14-4.49.6-2.21.54-2.22.53-2.21,1.14-2.21.54-2.21.6-2.28L549,479.8l1.67-2.22,1.68-2.21,1.61-2.21,1.74-2.81v-4.5l-1.74-2.21.6-1.61,2.21-2.21,2.28,1.61v4.42l.47,2.21,2.82,1.75h2.28l1.07,2.21-1.07,2.21-2.28.54L560.62,477v4.49l.6,2.22,1.08,2.21,2.28,1.14,2.21.53L569,485.9l.54-2.21,2.21-2.22L574,482l2.21,1.14,2.22.54.6,2.21-.6,2.21-.47,2.21-1.14,2.82-1.14,2.21-1.07,2.28-.61,2.21-.53,2.22-1.08,2.21-.6,2.21v2.28l.6,2.21,2.75,2.21,2.21,1.14,2.22.47h2.21l2.21-.47,1.14,2.22L584,518.75l-2.21.53L579.53,521l-1.14,5v2.21l-1.08,2.22-.53,2.28v4.42l1.14,2.21,2.21,1.14,2.21.61,1.61,2.21,1.14,2.21,2.21.54,2.22-1.14,2.27-2.21,2.22.6,1.67,2.21,1.68,3.89-1.14,2.21L594,552.6l-2.22,1.75-2.27,1.07-2.22,1.68-2.21,1.67-2.21-1.14-2.75,1.14-2.21,1.14L575.64,561l-2.21,1.67-1.08,2.21-2.28-.53-2.21-2.22-1.07-2.21-.61-2.28-.53-2.21h-2.21l-2.22,1.68L559,559.31l.47,2.21,2.21,2.21,1.14,2.22-1.61,2.28-2.21.53-2.28-.53L555.66,566l-2.21-1.08h-6.71l-2.21-2.21L542.32,561l-2.28-.61h-2.21l-2.22.61-2.81,1.13L530.59,561l-2.22,1.67-2.28.54-2.21-.54-2.21-1.14-1.61-2.21-1.14-2.21,1.14-1.68h2.21l2.22-2.21,2.21-1.07,2.21-1.14,2.28-.61v-6.64l.47-2.27-1.61-2.75V534.3l-1.14-1.67,1.68-2.28.6-2.22.47-2.21.6-2.21V521.5l-.6-2.22-.47-2.27-.6-2.22h1.07"/><path class="cls-1" d="M546.74,564.87l-2.21-2.21L542.32,561l-2.28-.61h-2.21l-2.22.61-2.81,1.13L530.59,561l-2.22,1.67-2.28.54-2.21-.54-2.21-1.14-1.61-2.21-1.14-2.21,1.14-1.68-1.74-2.21-2.22-1.07-2.21-1.75-2.21-1.07L509.4,547h-2.21L505,546l-1.15-2.22-.46-2.27.46-1.61L501.15,541l-2.27-.61-2.22-.53-2.21,1.61-1.14,2.27L491.63,546h-2.21l-2.75-.54h-2.21l-2.28,2.21L480,549.86l-2.82.53-2.21-.53-1.14-2.22-1.07-2.21-1.14-2.21L470.52,541v-2.28l-.54-1.68-2.21,1.14-2.28,2.21v2.82l.53,2.21,1.14,2.21.61,2.22-1.14,2.28h-6.71l-2.21-1.75H455.5l-2.21-1.61-2.22-1.14-2.28-.6-2.21,1.14-2.21-.54-2.21-.6h-2.22l-2.21.6-2.28,1.68-2.21.54L431,547.64l-2.22-1.07-2.21-.6-2.28.6h-2.21l-2.21.47-1.14,2.28v2.21l1.14,2.21.53,2.22-1.13,2.21-2.22,1.14-2.21,1.07-2.21.61v6.7l-.14,1.47,1.81.14,2.22-1.07,2.21-.54,2.28,1.07,2.21,2.28,2.21,1.61,1.14,2.21,1.61,2.22,2.21,1.74,2.22,2.21,2.21,1.61,2.28,2.21,2.21,1.14,2.21,1.14,2.22,1.68L446,591l1.74,2.21,2.21,1.68,2.22,1.07,2.21,1.14,2.28.6,2.21.47,2.21,1.14,2.75.61H466l2.22.53,2.28,1.08,2.21,1.13,2.21,1.08,2.21.6L480,605.5l2.21,1.61,2.28,1.14,2.75.6,1.68,2.22,2.21,1.6,2.75,1.14h8.91l2.22.61h2.81l2.21.47,2.22,1.14,2.28,1.07,2.21.6,2.21.54h2.21l2.22,1.14,2.27.6,2.75.47,2.22.6,2.21,2.22,1.14,2.21,2.21,1.68,2.21.6,2.82.47,1.61-2.21,1.14-2.22,1.14-2.21.53-2.21,2.28-1.14,2.21-2.21,2.22-1.14,1.61-2.22,1.14-2.21v-2.21L553.92,606l1.14-2.28-1.61-2.21-1.75-2.22-2.21-1.61L547.28,596l-1.14-2.21-1.07-2.21-1.14-2.22v-2.21l-2.22-2.28-.53-2.21.53-2.21,1.08-2.22v-4.49l-.47-2.21.47-2.21h2.28l2.21-.54.6-2.21-1.14-1.68"/><path class="cls-1" d="M684.11,625.48h4.43l2.28.54,1.67-2.22.54-2.21-1.61-2.21-2.28-2.28v-2.21l.54-2.22V606l1.74-2.28,2.21-2.21,1.07-2.22.54-2.21.61-2.21V592.7l.53-2.28V590H663l-3.35-4.49-8.31-5-2.21-11.67-5,5L640.74,576,638,579.29,634.63,581h-3.35l-2.81-5-2.22-3.89v-4.42h.61l1.61-2.21V561l-1.07-2.22-1.15-2.21L624,556h-6.7l-2.21-1.14-2.22-.47-2.21-1.14-2.21-1.07-1.68-2.28-1.07-2.22L604,545.43l-1.61-2.21L600.18,541l-1.75,2.21v2.21l-1.07,2.21v1.68l-1.14,2.21L594,552.6l-2.22,1.75-2.27,1.07-2.22,1.68-2.21,1.67-2.21-1.14-2.75,1.14-2.21,1.14L575.64,561l-2.21,1.67-1.08,2.21-2.28-.53-2.21-2.22-1.07-2.21-.61-2.28-.53-2.21h-2.21l-2.22,1.68L559,559.31l.47,2.21,2.21,2.21,1.14,2.22-1.61,2.28-2.21.53-2.28-.53L555.66,566l-2.21-1.08h-6.71l1.14,1.68-.6,2.21-2.21.54h-2.28l-.47,2.21.47,2.21v4.49l-1.08,2.22-.53,2.21.53,2.21,2.22,2.28v2.21l1.14,2.22,1.07,2.21,1.14,2.21,2.21,1.74,2.21,1.61,1.75,2.22,1.61,2.21L553.92,606l1.14,2.21v2.21l-1.14,2.21-1.61,2.22L550.09,616l-2.21,2.21-2.28,1.14-.53,2.21-1.14,2.21L542.79,626l-1.08,1.14,1.68,2.21,2.21,1.14,2.28.53,2.21.54,2.22.6,2.75,1.14,2.21,1.08,2.21,1.14,2.21,1.07,2.28,1.14h6.64l2.21,2.21,2.28.54H584l2.28,1.07,2.21.6,2.21,1.14,2.22,1.61,2.21,1.14,2.28.6h2.21l2.22.47,2.21,1.14,2.21.61,2.81.53h4.5l2.21-.53,2.75-1.75,2.21-1.07,2.21-1.67,2.21-1.08,2.29-.6,2.21-1.61,2.21-.6,2.21-1.14,2.21-2.22,2.28-1.07,2.22-.53L643,634.4h4.42l1.14-2.22,1.14-2.21,2.22-1.14,2.21-1.67h2.21l2.21-.54,2.82-.6,2.28.6h2.75v-2.21l-2.28-.61-2.22-1.14v-2.21l1.14-2.21h2.22l2.21,1.14v2.21l.6,2.21,2.21-1.14h2.22l2.74-1.61,2.29-.6,1.07,2.82-2.75,1.14h-2.21l1.14,2.21,2.21.54h2.21l2.21.6,2.22,1.07,2.28,1.14,2.21.54,2.21.53,2.21.54h2.21l-2.21-2.21-2.21-.54-2.21-1.07-2.21-.6-2.28-.54-2.22-.6,2.75-.54"/><path class="cls-1" d="M703.62,576.61l2.21-.61,2.22-.53,2.27-1.14.48-2.22.6-2.21-1.08-2.21V563.2l.48-2.21,1.74-2.22,2.21-.6H717l2.21,1.14,2.28,1.68,1.08,2.21V566l.53,2.28v2.21l.61,2.21,1.61,2.21,2.21.61,2.28.53,2.81,1.08,2.22,1.13,2.21-1.13,1.14-2.22,1.61-2.21,1.67-2.21,1.68-2.21-.54-2.28.54-2.22,2.21-1.61,2.21-2.21,1.14-2.28,2.21-1.07h7.25l2.21,1.07,2.28,1.14,2.21,2.22L767,563.2l2.21,2.28,2.22,1.61.53,2.21,1.75,2.21,2.21.6,2.21.54,2.22,1.68v2.28l.53,2.21L796,577.08,794.26,556l-1.61-1.14-.6-3.29-14.48,2.21-7.17.61-2.22-.61-2.28-1.14-2.21-1.07-3.35-1.14-2.21-.53-2.22-1.08L753.7,547,751.49,546l-1.14-2.22-.6-2.27-2.22-1.08-.53-2.21-1.07-2.28-1.75-2.21-2.75-1.07-1.67-2.28-2.22-.47-2.74,2.75-2.22,1.67-2.27,2.22-2.22,1.67h-4.42l-2.22.54-2.28.53h-2.81l-2.75.61-2.21.53h-2.21L707,541l-2.21.47h-2.28l-2.81.6-.47,2.21,2.21-1.07,2.21.53L702,546,699.67,547l-1.61,2.28-2.21,1.07-2.22.61-2.21-1.68-2.28,2.21h-2.21l-2.22,1.07-1.13.61,2.75,2.21v2.21l1.13,2.28,2.22,2.21,1.74,2.22,2.21,2.21,1.61,2.21,2.21,1.68,2.22,2.21,1.74,2.21,1.61,2.22.6-.47"/><path class="cls-1" d="M780.92,578.82l-.53-2.21v-2.28l-2.22-1.68-2.21-.54-2.21-.6L772,569.3l-.53-2.21-2.22-1.61L767,563.2,764.83,561l-2.21-2.22-2.28-1.14-2.21-1.07h-7.25l-2.21,1.07-1.14,2.28-2.21,2.21-2.21,1.61-.54,2.22.54,2.28-1.68,2.21-1.67,2.21-1.61,2.21L737,577.08l-2.21,1.13-2.22-1.13L729.77,576l-2.28-.53-2.21-.61-1.61-2.21-.61-2.21v-2.21l-.53-2.28V563.2L721.45,561l-2.28-1.68L717,558.17h-2.21l-2.21.6L710.8,561l-.48,2.21v4.49l1.08,2.21-.6,2.21-.48,2.22-2.27,1.14-2.22.53-2.21.61-.6.47,1.74,2.21.47,2.28-.47,2.21L703,586l-3.35,1.14-2.22,2.21-1.07.61v.47l-.54,2.28v2.21l-.6,2.21-.54,2.21-1.07,2.22-2.21,2.21L689.68,606v6.63l-.54,2.22v2.21l2.28,2.28,1.61,2.21-.54,2.21L690.82,626l1.13.73,1.95.81,5.3,2.41,2.21,2.21L699.2,631h-2.28l2.75,2.28L702,634.4l2.21,1.67,2.21,1.68,2.21,1.14L707,636.61l-1.74-2.21-1.61-2.22,2.21,1.14,2.22,1.08,2.27,1.14,2.22,2.21,2.21,1.61,2.21,2.21,2.21,2.28,2.28,1.68,1.61,2.21,2.22,2.21,1.74,2.28,1.61,2.21,1.14,2.21,2.21,1.61,2.21.61,2.22,1.61,2.21,1.74,2.81,1.61,2.28.6h2.22l2.21-1.68,2.21-1.67,2.21-2.21,2.28-2.22,2.21-2.21,1.61-2.21.61-2.82,14.48-27.22,43.91-4.49,1.07-2.21-.47-2.21-.6-2.21.6-2.22.47-2.28-2.21-.53-2.21-1.14-2.21-1.14-.54-2.21-1.14-2.22-2.21-2.21-1.68-2.21-2.28-1.14L802,592.7,799.29,591l-1.07-2.21L796,590.42l-2.82-2.22-2.28-1.6-2.21-1.75-2.21-2.21-2.22-2.21-2.21-1.61h-1.14"/><path class="cls-1" d="M770.93,521l-2.28,1.61-2.21,1.74-2.21.54L762,526.53l2.21.53,2.21-.53,2.21-.61,2.28-1.61,1.68-2.21L770.93,521"/><path class="cls-1" d="M122.23,138.35H120l-2.28,1.14-.54,2.21-.53,2.22v2.21l-.61,2.28v2.21l.61,2.15,2.21,1.67,2.21,1.14,1.68-2.21.53-2.28v-2.21l1.14-2.22v-2.21l-.6-2.21L125,140l-2.75-1.68"/><path class="cls-1" d="M891.67,406.92l-2.21-.53-2.28-.61L885,404.71l-2.21-1.14-2.21-.47-4-.6-2.21,1.67-2.22,1.14L870,406.39l-2.28.53-2.21.61-2.75.53-2.81.54-2.22,2.28-2.21,2.21-2.21,1.07-2.21,1.14-2.28.54h-2.21l-2.22.6-2.21.47-2.21.61-2.28.53-2.21.6-2.22.54L831,420.26l-2.21.61L826.51,422l-2.21.47-2.22,1.14-2.21.6-2.21.47-2.28,1.14-2.21,1.74L811,429.18l-2.22,1.68L806.53,432l-2.28,1.61-1.07,2.21L802,438.1l-.47,2.21-.6,2.21,1.67,1.14.54,2.82v1.07l1.07,2.75v1.14l2.28.53,1.68.54,1.14,1.74,2.75.47h2.81l35,38.95,40-53.9,6.71-13.94-2.22-18.3-2.75-.61"/><path class="cls-1" d="M770.93,521l-2.28,1.61-2.21,1.74-2.21.54L762,526.53l2.21.53,2.21-.53,2.21-.61,2.28-1.61,1.68-2.21L770.93,521"/><path class="cls-1" d="M794.26,556l-1.61-1.14-.6-3.29-14.48,2.21-7.17.61-2.22-.61-2.28-1.14-2.21-1.07-3.35-1.14-2.21-.53-2.22-1.08L753.7,547,751.49,546l-1.14-2.22-.6-2.27-2.22-1.08-.53-2.21-1.07-2.28-1.75-2.21-2.75-1.07-1.67-2.28-2.22-.47,4.43-1.75,2.21-.47,2.21-.6h4.49l2.82-1.14,2.21-1.07h2.22l1.67,2.21-.53,2.21,2.21,4,1.14,2.21h2.21l1.61-2.21h2.21l2.28.47,1.07-2.21,2.22-1.61,2.28-1.14,2.21-.61,2.81-.47-.6-2.27.6-2.22L780.39,521l-2.22-.6L776,521h-2.21l1.07-2.21,2.21-.61,2.28-1.6,1.61-2.22,2.21-1.74,2.22-2.21,2.27-2.21,2.22-1.68,2.21-1.68,1.68-2.21,2.28-2.21.46-2.28v-2.21l.61-4.43v-2.21l-.61-2.21v-2.28l1.75-2.21,1.61-2.22v-2.21l1.14-2.21,1.07-2.28v-9.39L801,462l.6-2.21-1.74-2.28v-2.21l.6-2.22,1.14-2.21-.6-2.21v-2.21l1.67-2.82.54,2.82v1.07l1.07,2.75v1.14l2.28.53,1.68.54,1.14,1.74,2.75.47h2.81l35,38.95,6.17,55.65-60.68,7.24-1.14-.6"/><path class="cls-1" d="M849.91,493.67l40-53.9,6.71-13.94-2.22-18.3h1.68l2.21.53,2.28.54h2.21l2.22-.54,1.6-2.28,1.14-2.21-2.21-1.07-2.21.6-2.28.47-2.21.6L900,402l2.21-.6,2.21-.54,2.21-.54h2.28l2.22,1.68.6,2.21,1.61,2.75-.54,2.21,1.68,2.22,1.07,2.28.6,2.21v6.64l-.6,3.35V428l-.53,2.21-1.08,2.28-1.74,2.21L910.58,437l-1.68,2.21-1.67,2.21-1.07,2.28L905,445.87l-.61,2.22-.53,2.21-2.22,3.35-.6,2.21.6,2.22.54,2.21.6,2.28v2.21L900,469.2l-2.22,2.22-.53,2.21v2.28l2.21,1.67,2.21-1.13,2.22-.54,1.14,2.21v2.21l-1.68,2.22-2.28,1.74-2.21,1.07-1.08,2.21,1.08,2.28h2.21l2.28-1.14.54,2.22-.54,2.21v2.21l-.54,2.28v2.21l-.6,2.22-.54,2.21-.6,2.21v2.28l-.47,2.21.47,2.75v2.21l.6,2.21v2.22l-1.07,2.21-.6,2.28-.54,2.21-1.68,2.22-2.27-1.15-.47-2.21-.61-2.21-1.67-2.21-2.22-1.14-2.21-1.61v-2.21l.54-2.22V512l-.54-2.21-.6-2.21-1.07-2.21-2.28,1.07-.47,2.28-.6,2.21-1.15,2.21-.47,2.22v2.21l-.6,2.21L878.8,521l-2.21.54-2.21.6-2.22,1.07-1.6,2.22-1.14,2.27-.61,2.22-.53,2.21-.61,2.21-.47,2.22-1.14,2.21L865,541l-.6,2.21-2.21.53-1.68-2.27-2.82-1.08h-2.21l-5.56-46.73"/><path class="cls-1" d="M895.5,542.08v-2.21l.6-2.22,1.67-2.21v-2.21l-.13-2.08-1.54,2.08-.6,2.21-1.08,2.21-1.14,2.22,2.22,2.21"/><path class="cls-1" d="M921.71,437l-2.21-.54-2.22,1.14-1.74,2.21L915,442l-.54,2.21,1.07,2.28,2.21.47,1.14-2.22,1.14-2.21,1.08-2.21.6-3.35"/><path class="cls-1" d="M86.7,122.19l-1.21,1.61v2l.81,2,.33,1.94,2,1.68,1.87,1.67.81,2.22,1.47,1.94.81,1.95.27,1.94,2.21.8v-6.36l-1.41-1.95-1.34-1.94-.54-2-.87-2.21-.6-1.74-1.27-1-2-1.14-1.27-1.41"/><path class="cls-1" d="M103.33,180.05l-40.16-4.56,1.14-2.21,1.61-2.21v-4.43l1.14-2.28v-8.85l-1.68-2.21-2.21-1.67L61,150l-1.61-2.21-1.14-2.28-1.14-2.21L56,141l-1.14-2.21-.6-2.21-.53-2.28-2.28-2.21-2.22-2.22-1.61-3.35-1.74-2.21-2.21-1.68-2.21-1.14-2.22-2.21L37,117.7l-2.28-2.28-2.21-1.07-2.21-2.21-2.22-1.75L27,108.18,25.36,106v-2.21l-.61-4.49V88.14l-.53-2.22-1.08-2.21-.6-2.21L22,79.29l-2.21-2.22-.53-2.27.53-2.22.6-2.21,2.15.6V68.76L20.39,67l.47-2.15V62.66l-1.6-2.21L17,61.52,15.3,59.31l-.54-2.21V54.88l1.08-2.27V50.33l-.54-2.22L14.23,45.9l-1.75-2.21-1.07-2.21L9.8,39.26,7.52,37l-.6-2.21V32.56l.6-2.21,2.28-.54V25.39L7.52,23.17,5.85,20.89l-.54-2.21-.6-2.21-.47-2.82-.61-2.21L2.49,9.23,2,7,.89,4.74.35,2.52V.38L65.92,4.27l1.74,2.21V8.69L65.92,10.9l-1.61,2.22-2.21.53-2.75,2.82L57.6,18.68v2.21l-.53,2.28v2.22L55.39,27.6l-1.14,2.21L56,32l2.22,1.68,1.14,2.21.47,2.21-.47,2.22-.61,2.21-1.67,2.21L56,47l1.08,2.21v2.21l-.54,2.22L56,55.89v2.28l.54,2.21.54,2.21,2.28,2.22.47,2.81-1.08,2.21L57.6,72.05v2.28l1.14,2.21.61,2.21-.61,6.1-.53,2.21-.61,2.22v2.21l.61,2.21v4.56l1.61,2.21.6,2.22v2.21l1.68,2.28,2.21,2.21L66.52,111l2.21,1.74L70.34,115l1.75,2.22,1.6,2.14,2.22,2.21,1.14,2.22L78.19,126l1.67,2.21,2.21,1.07.54,2.21v2.28l.6,2.21.54,2.22v4.42l1.07,2.28L86,142.64h2.21l.61,2.28v2.21l1.07,2.22,2.28-1.14,2.21,1.14v4.42l.54,2.21v2.28l.54,2.22,1.67,2.21,1.68,2.21h3.89l.6,2.21v9.52l.47,2.22-.4,1.2"/><path class="cls-1" d="M103.73,183.27l-.47,2.75v2.28l1.07,2.21,2.21.6,6.71,7.24,1.14,2.22v2.14l.47,2.21L116,207.2v2.22l.6,2.21,1.61,2.21,2.21,1.14,2.82,1.07v2.22H121v2.28l1.67,2.21,1.07,2.21.61,2.21-1.68,2.21-.53,2.28,1.6,2.22,1.75,2.21,2.21,1.68v-4.43l-.6-2.21L126,228.93v-2.28l1.14-2.22,2.21,1.14,1.14,2.22,1.14,2.21,1.67,2.21.61,2.28L135,236.7l1.14,2.21,2.21,1.61v2.22l-.6,2.28-1.61,2.21-.6,2.21.6,2.21.54,2.21.53,2.28-1.07,2.22.54,2.21,1.67,2.21V265l.54,2.22,1.67,2.28v2.21l1.14,2.21,2.22,1.68,2.21,1.67v2.22l.53,2.21V284l.61,2.28v2.21l.47,2.21,1.74,2.21,3.29,6.71,1.67,2.21L155,304l-1.14,2.22-1.61,2.21-1.61,3.35,1.07,2.21.54,2.21.54,2.28v2.22l.53,2.21,2.28,2.21,1.61,2.21,2.21,1.14,2.22,1.61h2.81l.54-2.21v-2.21l1.74-2.21,2.21,1.67,1.08,2.21,1.14,2.28,1.14,2.22.46,2.21.61,2.21,1.67,2.21,2.22,1.68,2.21,1.07,2.21,2.21.6,2.28-.6,2.22v2.21l2.21,1.67,2.82,1.14,2.28.54L190,355.7v8.92l-1.67,2.21L187.2,369l-1.08,2.22-2.28,1.14-2.21,1.67-1.07,2.75-2.28.54-2.21,1.07-2.22,1.74h-2.21L170,378l-1.68-2.28v-2.21l-1.61-2.21-.6-2.22V366.3l-.54-2.82-.6-2.21-1.07-2.22v-2.27l-.54-2.22-4-4.42-3.82-1.75-1.74-2.21-2.15-1.61L150,342.36l-1.68-2.21-1.68-2.28-1.6-2.21-1.14-2.22-2.22-2.21L140.53,329l-2.21-1.74-2.21-1.61-2.21-1.61-2.82-1.74-1.14-2.22-2.21-2.21L126,315.68l-2.22-2.28-2.21-1.61-1.14-2.21-2.75-2.22-.53-2.21L116,302.87l-2.22-.53-2.21-1.68v-2.21l.54-2.21-2.21-1.14-.61,2.21V304l-1.61,2.22-2.21-1.68-.6-2.21-.54-2.28.54-2.22,1.67-2.21v-2.21l-.53-2.21,2.21-2.28,1.68-2.21,1.67-2.22v-4.42l.54-2.21,2.28-1.75-.61-2.21.61-2.21.47-2.21,1.14-2.28V265l-1.14-2.21v-2.21l-.47-2.21-1.14-2.22-.6-2.28L111,251.65l-1.75-2.21-2.21-1.61-2.75-.6-2.21-.54L99.91,245l-2.22-2.28-2.27-1.61-1.08-2.22L92.6,236.7,91,234.49l-2.82-2.82L87,229.39,86,227.18V225l1.68-2.21,1.14-2.21.53-2.28-2.28.6L86,221.08l-1.67,2.28-2.22.47-2.21-1.61-.6-2.21-.54-2.21-2.21.47.54,2.28v2.21L75.91,225l-2.22.6-2.21-.6-2.21-2.21-.54-2.21-.6-2.28-1.07-2.22-2.15-1.61-2.28-.6-2.21-1.07-.6-2.28-1.61-2.21-2.82-1.61-2.21-.61L51,204.92l-2.28-2.21-.54-2.21,1.07-2.21-1.61-2.22-1.74-2.27-2.21-1.61L41.45,190l-1.61-2.21-2.28-2.21-2.21-2.28-1.68-2.21.6-2.21,6,.53,2.28,1.68,2.21.53h9.45l2.28-1.14,2.21-1.07L61,177.7l2.21-2.21,40.16,4.56.4,3.22"/><path class="cls-1" d="M145.56,257.28l-2.21,1.14-2.21,1.08L140,261.78l.6,2.21,2.21,1.07,1.14-2.21,1.61-2.21,1.14-2.22-1.14-1.14"/><path class="cls-1" d="M154.48,294.09l-.6,2.21v2.21l1.14,2.22,2.21,2.21,1.74-2.21-.6-2.22-1.68-2.21-.54-2.21h-1.67"/><path class="cls-1" d="M162.79,314.07v4.49l2.22,1.61.6-2.21-.6-2.22-2.22-1.67"/><path class="cls-1" d="M177.88,323.52l-.61,2.21.61,2.22,1.07,2.21,1.68,2.28,1.07-2.28-.54-2.21-.53-2.22L179,323.52h-1.07"/></svg>