<svg id="Layer_2" data-name="Layer 2" xmlns="http://www.w3.org/2000/svg" viewBox="0 0 230 43.53"><defs><style>.cls-1{fill:#a7c54a;}.cls-2{fill:#467cb2;}.cls-3{fill:#d9842e;}.cls-4{fill:#b94590;}.cls-5{fill:#fff;}</style></defs><title>RRHHIngenia-Website2020</title><path class="cls-1" d="M22.21,33a1.54,1.54,0,0,1-.46,2.25,7,7,0,0,1-7.19,0A1.56,1.56,0,0,1,14.1,33a5,5,0,0,1,8.11,0Z"/><path class="cls-1" d="M20.2,28a2,2,0,1,1-2-2A2,2,0,0,1,20.2,28Z"/><path class="cls-2" d="M31.56,25.78a1.54,1.54,0,0,1,1.26,1.88,7,7,0,0,1-5.13,5.13,1.54,1.54,0,0,1-1.88-1.27,5,5,0,0,1,5.75-5.74Z"/><path class="cls-2" d="M26.53,23.62a2,2,0,1,1-2.88,0A2,2,0,0,1,26.53,23.62Z"/><path class="cls-3" d="M33,14.05a1.56,1.56,0,0,1,2.25.46,7,7,0,0,1,0,7.2,1.56,1.56,0,0,1-2.25.46,5,5,0,0,1,0-8.12Z"/><path class="cls-3" d="M28,16.07a2,2,0,1,1-2,2A2,2,0,0,1,28,16.07Z"/><path class="cls-4" d="M25.78,4.71a1.54,1.54,0,0,1,1.88-1.26A6.94,6.94,0,0,1,30.94,5.3a6.85,6.85,0,0,1,1.85,3.28,1.54,1.54,0,0,1-1.27,1.88,5.07,5.07,0,0,1-4.35-1.4A5,5,0,0,1,25.78,4.71Z"/><path class="cls-4" d="M23.62,9.74a2,2,0,1,1,0,2.88A2,2,0,0,1,23.62,9.74Z"/><path class="cls-1" d="M14.05,3.25A1.57,1.57,0,0,1,14.51,1a7,7,0,0,1,7.2,0,1.57,1.57,0,0,1,.46,2.26,5,5,0,0,1-8.12,0Z"/><path class="cls-1" d="M16.07,8.32a2,2,0,1,1,2,2A2,2,0,0,1,16.07,8.32Z"/><path class="cls-2" d="M4.71,10.49A1.54,1.54,0,0,1,3.45,8.61,7,7,0,0,1,8.58,3.48a1.54,1.54,0,0,1,1.88,1.27,5,5,0,0,1-5.75,5.74Z"/><path class="cls-2" d="M9.74,12.65a2,2,0,1,1,2.88,0A2,2,0,0,1,9.74,12.65Z"/><path class="cls-3" d="M3.25,22.21A1.55,1.55,0,0,1,1,21.75a7,7,0,0,1,0-7.19,1.57,1.57,0,0,1,2.26-.46,5,5,0,0,1,2.08,4.06A5,5,0,0,1,3.25,22.21Z"/><path class="cls-3" d="M8.32,20.2a2,2,0,1,1,2-2A2,2,0,0,1,8.32,20.2Z"/><path class="cls-4" d="M10.49,31.56a1.54,1.54,0,0,1-1.88,1.26,7,7,0,0,1-5.13-5.13,1.54,1.54,0,0,1,1.27-1.88,5,5,0,0,1,5.74,5.75Z"/><path class="cls-4" d="M12.65,26.53a2,2,0,1,1,0-2.88A2,2,0,0,1,12.65,26.53Z"/><path class="cls-5" d="M53.86,43.48a4.69,4.69,0,0,1-3.42-1.3l.74-.69a3.61,3.61,0,0,0,2.64,1.1c1.47,0,2.25-.56,2.25-1.31,0-.54-.46-1-1.54-1.33l-1.47-.39c-1.45-.4-2.41-.93-2.41-2.08s1-2.15,3.11-2.15a4,4,0,0,1,3,1.21l-.7.68a2.94,2.94,0,0,0-2.33-1c-1.49,0-2.16.58-2.16,1.23s.61.92,1.92,1.28l1.29.36c1.57.41,2.21,1.21,2.21,2.14C57,42.33,56.18,43.48,53.86,43.48Z"/><path class="cls-5" d="M60.74,43.48c-1.94,0-2.92-1.34-2.92-3.2s1-3.19,2.92-3.19,2.93,1.33,2.93,3.19S62.67,43.48,60.74,43.48Zm0-5.52c-1.42,0-2,1-2,2.32s.6,2.33,2,2.33,2-1,2-2.33S62.16,38,60.74,38Z"/><path class="cls-5" d="M65.76,43.38h-.91V35.13h.91Z"/><path class="cls-5" d="M72.59,43.38h-.9V42.6h0a2.49,2.49,0,0,1-1.94.88A2.2,2.2,0,0,1,67.24,41V37.19h.9V41c0,.91.27,1.62,1.69,1.62a1.68,1.68,0,0,0,1.86-1.75V37.19h.9Z"/><path class="cls-5" d="M79,42.57a3,3,0,0,1-2.29.91c-2,0-2.94-1.35-2.94-3.15a2.93,2.93,0,0,1,3-3.24,2.88,2.88,0,0,1,2.19.81l-.63.64A2.05,2.05,0,0,0,76.74,38a2.1,2.1,0,0,0-2.06,2.37c0,1.24.58,2.28,2,2.28a2.09,2.09,0,0,0,1.64-.67Z"/><path class="cls-5" d="M80.41,36.37a.65.65,0,1,1,.59-.65A.58.58,0,0,1,80.41,36.37Zm.45,7H80V37.19h.9Z"/><path class="cls-5" d="M85,43.48c-1.94,0-2.91-1.34-2.91-3.2s1-3.19,2.91-3.19,2.93,1.33,2.93,3.19S86.9,43.48,85,43.48ZM85,38c-1.42,0-2,1-2,2.32s.6,2.33,2,2.33,2-1,2-2.33S86.39,38,85,38Z"/><path class="cls-5" d="M94.51,43.38H93.6V39.63c0-1-.3-1.67-1.72-1.67A1.71,1.71,0,0,0,90,39.7v3.68h-.9V37.19H90V38h0a2.56,2.56,0,0,1,2-.88c1.63,0,2.54.84,2.54,2.34Z"/><path class="cls-5" d="M101.47,40.7h-5l.11.09a1.9,1.9,0,0,0,2.06,1.82,2.33,2.33,0,0,0,1.7-.67l.64.63a3.27,3.27,0,0,1-2.35.91c-2,0-3-1.35-3-3.15s1.08-3.24,2.94-3.24,2.9,1.38,2.9,3.24C101.49,40.48,101.48,40.57,101.47,40.7Zm-.81-.83-.1-.1a1.87,1.87,0,0,0-2-1.81,1.91,1.91,0,0,0-2,1.81l-.11.1Z"/><path class="cls-5" d="M105,43.49a3.58,3.58,0,0,1-2.68-1.07l.67-.66a2.73,2.73,0,0,0,2,.86c1.1,0,1.59-.41,1.59-.9s-.23-.67-1.08-.9l-1.09-.32c-1.09-.3-1.89-.73-1.89-1.68s.78-1.73,2.43-1.73a3.18,3.18,0,0,1,2.41,1l-.67.67a2.13,2.13,0,0,0-1.74-.8c-1.07,0-1.52.43-1.52.83s.36.62,1.37.9l1,.3c1.23.33,1.71.89,1.71,1.69S106.8,43.49,105,43.49Z"/><path class="cls-5" d="M117,40.7h-5l.1.09a1.91,1.91,0,0,0,2.07,1.82,2.32,2.32,0,0,0,1.69-.67l.64.63a3.25,3.25,0,0,1-2.34.91c-2,0-3-1.35-3-3.15s1.08-3.24,3-3.24S117,38.47,117,40.33C117,40.48,117,40.57,117,40.7Zm-.8-.83-.11-.1a1.87,1.87,0,0,0-2-1.81,1.92,1.92,0,0,0-2,1.81l-.1.1Z"/><path class="cls-5" d="M123.6,43.38h-.9V39.63c0-1-.31-1.67-1.73-1.67a1.71,1.71,0,0,0-1.9,1.74v3.68h-.9V37.19h.9V38h0a2.58,2.58,0,0,1,2-.88c1.63,0,2.53.84,2.53,2.34Z"/><path class="cls-5" d="M134.69,43.38h-1.05l-1-2.09a2,2,0,0,0-2-1.19h-1.88l.09.1v3.18h-.93v-8h3.49a2.37,2.37,0,0,1,2.67,2.35,2.1,2.1,0,0,1-1.59,2v0a2.18,2.18,0,0,1,1,1.06Zm-3.31-7.07h-2.65l.09.1v2.71l-.09.09h2.54c1.15,0,1.82-.59,1.82-1.44C133.09,36.71,132.35,36.31,131.38,36.31Z"/><path class="cls-5" d="M140.86,40.7h-5l.11.09A1.91,1.91,0,0,0,138,42.61a2.33,2.33,0,0,0,1.7-.67l.64.63a3.25,3.25,0,0,1-2.35.91c-2,0-3-1.35-3-3.15s1.08-3.24,3-3.24,2.89,1.38,2.89,3.24C140.88,40.48,140.87,40.57,140.86,40.7Zm-.8-.83-.11-.1A1.87,1.87,0,0,0,138,38a1.92,1.92,0,0,0-2,1.81l-.11.1Z"/><path class="cls-5" d="M147,42.57a3,3,0,0,1-2.3.91c-2,0-2.93-1.35-2.93-3.15a3.07,3.07,0,0,1,5.15-2.43l-.64.64a2,2,0,0,0-1.56-.58,2.1,2.1,0,0,0-2.05,2.37c0,1.24.58,2.28,2,2.28a2.09,2.09,0,0,0,1.65-.67Z"/><path class="cls-5" d="M153.2,43.38h-.9V42.6h0a2.48,2.48,0,0,1-1.93.88,2.2,2.2,0,0,1-2.5-2.44V37.19h.91V41c0,.91.26,1.62,1.69,1.62a1.67,1.67,0,0,0,1.85-1.75V37.19h.9Z"/><path class="cls-5" d="M157.83,38.08h-.3c-.89,0-1.89.6-1.89,2.24v3.06h-.9V37.19h.9v1.07h0a2.15,2.15,0,0,1,2-1.14h.2Z"/><path class="cls-5" d="M161,43.49a3.58,3.58,0,0,1-2.68-1.07l.67-.66a2.7,2.7,0,0,0,2,.86c1.1,0,1.59-.41,1.59-.9s-.23-.67-1.08-.9c-.14,0-1-.28-1.1-.32-1.09-.3-1.88-.73-1.88-1.68s.77-1.73,2.43-1.73a3.19,3.19,0,0,1,2.41,1l-.67.67a2.13,2.13,0,0,0-1.74-.8c-1.07,0-1.52.43-1.52.83s.35.62,1.36.9l1,.3c1.22.33,1.7.89,1.7,1.69S162.8,43.49,161,43.49Z"/><path class="cls-5" d="M167.25,43.48c-1.95,0-2.92-1.34-2.92-3.2s1-3.19,2.92-3.19,2.92,1.33,2.92,3.19S169.18,43.48,167.25,43.48Zm0-5.52c-1.43,0-2,1-2,2.32s.6,2.33,2,2.33,2-1,2-2.33S168.67,38,167.25,38Z"/><path class="cls-5" d="M173.7,43.49A3.55,3.55,0,0,1,171,42.42l.66-.66a2.73,2.73,0,0,0,2,.86c1.1,0,1.59-.41,1.59-.9s-.24-.67-1.08-.9c-.14,0-1-.28-1.1-.32-1.09-.3-1.89-.73-1.89-1.68s.78-1.73,2.44-1.73a3.17,3.17,0,0,1,2.4,1l-.66.67a2.16,2.16,0,0,0-1.74-.8c-1.07,0-1.52.43-1.52.83s.35.62,1.36.9l1,.3c1.23.33,1.71.89,1.71,1.69S175.48,43.49,173.7,43.49Z"/><path class="cls-5" d="M186.7,43.38h-.94V39.94l.1-.1H181l.1.1v3.44h-.93v-8h.93v3.44l-.1.1h4.86l-.1-.1V35.42h.94Zm-.84-3.54h0Z"/><path class="cls-5" d="M193.53,43.38h-.9V42.6h0a2.49,2.49,0,0,1-1.94.88A2.2,2.2,0,0,1,188.18,41V37.19h.9V41c0,.91.27,1.62,1.69,1.62a1.68,1.68,0,0,0,1.86-1.75V37.19h.9Z"/><path class="cls-5" d="M203.2,43.38h-.9V39.94c0-1.13-.13-2-1.28-2-1,0-1.44.8-1.43,1.7v3.72h-.91V39.7c0-1-.2-1.75-1.27-1.75A1.53,1.53,0,0,0,196,39.67v3.71h-.92V37.19H196V38h0a1.87,1.87,0,0,1,1.6-.88,1.9,1.9,0,0,1,1.72,1.08h0a2.25,2.25,0,0,1,1.86-1.08c1.34,0,2,.89,2,2.61Z"/><path class="cls-5" d="M209.8,43.38h-.9v-.55h0a3,3,0,0,1-2,.66c-1.24,0-2.52-.49-2.52-1.91,0-1.94,2.46-2,4-2a6.12,6.12,0,0,1,.69,0l-.1-.11v-.14c0-1.06-.78-1.4-1.7-1.4a2.85,2.85,0,0,0-1.95.62l-.62-.62a3.73,3.73,0,0,1,2.57-.86c1.31,0,2.6.52,2.6,2.25Zm-.8-3-.63,0c-1.08,0-3.12,0-3.12,1.22,0,.83,1,1.05,1.63,1.05s2-.18,2-1.06V40.48Z"/><path class="cls-5" d="M216.71,43.38h-.9V39.63c0-1-.3-1.67-1.73-1.67a1.7,1.7,0,0,0-1.89,1.74v3.68h-.91V37.19h.91V38h0a2.54,2.54,0,0,1,2-.88c1.63,0,2.53.84,2.53,2.34Z"/><path class="cls-5" d="M220.77,43.48c-2,0-2.92-1.34-2.92-3.2s1-3.19,2.92-3.19,2.92,1.33,2.92,3.19S222.7,43.48,220.77,43.48Zm0-5.52c-1.43,0-2,1-2,2.32s.59,2.33,2,2.33,2-1,2-2.33S222.19,38,220.77,38Z"/><path class="cls-5" d="M227.22,43.49a3.58,3.58,0,0,1-2.68-1.07l.67-.66a2.7,2.7,0,0,0,2,.86c1.1,0,1.59-.41,1.59-.9s-.24-.67-1.08-.9c-.14,0-1-.28-1.1-.32-1.09-.3-1.88-.73-1.88-1.68s.77-1.73,2.43-1.73a3.19,3.19,0,0,1,2.41,1l-.67.67a2.13,2.13,0,0,0-1.74-.8c-1.07,0-1.52.43-1.52.83s.35.62,1.36.9l1,.3c1.22.33,1.7.89,1.7,1.69S229,43.49,227.22,43.49Z"/><polygon class="cls-5" points="108.58 6.77 108.58 14.1 101.46 14.1 101.46 6.77 95.07 6.77 95.07 27.13 101.46 27.13 101.46 19.8 108.58 19.8 108.58 27.13 114.97 27.13 114.97 6.77 108.58 6.77"/><polygon class="cls-5" points="130.78 6.77 130.78 14.1 123.66 14.1 123.66 6.77 117.27 6.77 117.27 27.13 123.66 27.13 123.66 19.8 130.78 19.8 130.78 27.13 137.17 27.13 137.17 6.77 130.78 6.77"/><rect class="cls-5" x="143.46" y="6.77" width="2.45" height="19.83"/><path class="cls-5" d="M148.63,17.72l0,8.89h2.26V17.67a4.47,4.47,0,0,1,4.47-4.48h0a4.47,4.47,0,0,1,4.48,4.48v8.94h2.25V17.69a6.76,6.76,0,0,0-6.75-6.76h0A6.76,6.76,0,0,0,148.63,17.72Z"/><path class="cls-5" d="M195.8,17.72l0,8.89h2.25V17.67a4.48,4.48,0,0,1,4.48-4.48h0a4.48,4.48,0,0,1,4.48,4.48v8.94h2.25V17.69a6.76,6.76,0,0,0-6.75-6.76h0A6.77,6.77,0,0,0,195.8,17.72Z"/><path class="cls-5" d="M227.74,10.93v2.28a6.66,6.66,0,0,0-4.81-2.12c-3.91,0-7.07,3.53-7.07,7.88s3.16,7.88,7.07,7.88a6.66,6.66,0,0,0,4.81-2.12v1.88H230V10.93Zm-4.81,13.62a5.32,5.32,0,0,1-5-5.58,5,5,0,1,1,10,0A5.32,5.32,0,0,1,222.93,24.55Z"/><path class="cls-5" d="M177.85,18.45h0c0-.1,0-.2,0-.29a7.07,7.07,0,1,0-2.06,5v1.71a5.3,5.3,0,0,1-5.47,5,5.46,5.46,0,0,1-3.94-1.65c-.42.42-1,1-1.49,1.53a7.7,7.7,0,0,0,5.43,2.19,7.31,7.31,0,0,0,7.53-7.07h0Zm-7.06,4.71a5,5,0,1,1,5-5A5,5,0,0,1,170.79,23.16Z"/><rect class="cls-5" x="211.65" y="11.18" width="2.45" height="15.43"/><path class="cls-5" d="M212.87,5.68a1.83,1.83,0,1,0,1.83,1.83A1.82,1.82,0,0,0,212.87,5.68Z"/><path class="cls-5" d="M191.51,22.48a6.31,6.31,0,0,1-4.69,2.07,5,5,0,0,1-4.45-3l11.44-3.66c-.49-3.82-3.43-6.77-7-6.77-3.91,0-7.07,3.53-7.07,7.88s3.16,7.88,7.07,7.88A8.25,8.25,0,0,0,193.08,24l-1.57-1.49Zm-4.69-9.09a4.93,4.93,0,0,1,4.34,2.81l-9.26,3V17.86A5.17,5.17,0,0,1,186.82,13.39Z"/><path class="cls-5" d="M88.85,19.71a6.61,6.61,0,0,0,2.66-5.13c0-4.86-3.1-7.81-8.51-7.81H72.51V27.13H78.9V12.45H83a1.92,1.92,0,0,1,2,2.12c0,.4,0,2.14-2.32,2.14h0a1.84,1.84,0,0,0-1.44,3l5.89,7.43h7.2S89.37,20.1,88.85,19.71Z"/><path class="cls-5" d="M66.29,19.71A6.61,6.61,0,0,0,69,14.58c0-4.86-3.1-7.81-8.51-7.81H50V27.13h6.39V12.45h4.1a1.92,1.92,0,0,1,2.05,2.12c0,.4,0,2.14-2.32,2.14h0a1.84,1.84,0,0,0-1.44,3l5.89,7.43h7.2S66.81,20.1,66.29,19.71Z"/></svg>